# xmcd
# Copyright (C) 1995-1998 Ti Kan
#
# Track frame offsets:
#       150
#       15745
#       31680
#       47098
#       62669
#
# Disc length: 1059 seconds
#
# Revision: 0
# Processed by: cddbd v1.5.2PL0 Copyright (c) Steve Scherf et al.
# Submitted via: CD-Import v1.0
#
DISCID=34042105
DTITLE=Die Paldauer - 
DYEAR=11
DGENRE=
TTITLE0=Ein Ganz Besonderer Tag
TTITLE1=Nachts, Wenn Alle Sterne Leuchten
TTITLE2=Wintergefühl
TTITLE3=Zeit Für Die Familie
TTITLE4=Zusammen
EXTD=
EXTT0=
EXTT1=
EXTT2=
EXTT3=
EXTT4=
PLAYORDER=
